<svg width="152" height="152" viewBox="0 0 152 152" fill="none" xmlns="http://www.w3.org/2000/svg">
<g clip-path="url(#clip0_15_529)">
<path d="M127.544 0.478149H23.8405C10.8237 0.478149 0.271484 11.0304 0.271484 24.0472V127.751C0.271484 140.768 10.8237 151.32 23.8405 151.32H127.544C140.561 151.32 151.113 140.768 151.113 127.751V24.0472C151.113 11.0304 140.561 0.478149 127.544 0.478149Z" fill="#231E1B"/>
<path fill-rule="evenodd" clip-rule="evenodd" d="M75.5771 39.0936C54.819 39.0936 37.9819 55.9307 37.9819 76.6887C37.9819 93.2952 48.8222 107.365 63.5835 112.439C65.4287 112.669 66.1206 111.516 66.1206 110.594C66.1206 109.671 66.1206 107.365 66.1206 104.135C55.7416 106.442 53.4351 99.0613 53.4351 99.0613C51.8206 94.6791 49.2835 93.5258 49.2835 93.5258C45.8239 91.2194 49.5142 91.2194 49.5142 91.2194C53.2045 91.45 55.2803 95.1403 55.2803 95.1403C58.74 100.906 64.0448 99.292 66.1206 98.3694C66.3513 95.8323 67.5045 94.2178 68.4271 93.2952C60.1238 92.3726 51.3593 89.1436 51.3593 74.6129C51.3593 70.4613 52.7432 67.2323 55.2803 64.4646C55.0497 63.7726 53.6658 59.8517 55.7416 54.7775C55.7416 54.7775 58.9706 53.8549 66.1206 58.6984C69.119 57.7759 72.348 57.5452 75.5771 57.5452C78.8061 57.5452 82.0351 58.0065 85.0335 58.6984C92.1835 53.8549 95.4125 54.7775 95.4125 54.7775C97.4883 59.8517 96.1045 63.7726 95.8738 64.6952C98.1803 67.2323 99.7948 70.692 99.7948 74.8436C99.7948 89.3742 91.0303 92.3726 82.727 93.2952C84.1109 94.4484 85.2641 96.7549 85.2641 100.215C85.2641 105.289 85.2641 109.21 85.2641 110.594C85.2641 111.516 85.9561 112.669 87.8012 112.439C102.793 107.365 113.403 93.2952 113.403 76.6887C113.172 55.9307 96.3351 39.0936 75.5771 39.0936Z" fill="white"/>
</g>
<defs>
<clipPath id="clip0_15_529">
<rect width="150.842" height="150.842" fill="white" transform="translate(0.271484 0.478149)"/>
</clipPath>
</defs>
</svg>
